<svg xmlns="http://www.w3.org/2000/svg" width="1024" height="1024" viewBox="0 0 1024 1024" role="img" aria-label="GestureSync simple watch icon candidate">
  <defs>
    <linearGradient id="bg" x1="0" y1="0" x2="1" y2="1">
      <stop offset="0" stop-color="#22C9FF"/>
      <stop offset="0.55" stop-color="#0B91FF"/>
      <stop offset="1" stop-color="#0068F7"/>
    </linearGradient>
    <linearGradient id="arrow" x1="0" y1="0" x2="1" y2="1">
      <stop offset="0" stop-color="#29E5FF"/>
      <stop offset="1" stop-color="#2379FF"/>
    </linearGradient>
  </defs>
  <rect x="0" y="0" width="1024" height="1024" rx="180" fill="url(#bg)"/>
  <path d="M450 130c110 0 205 70 232 176l50 196c45 178-73 348-219 348S248 680 293 502l50-196c27-106 97-176 107-176z" fill="#087BFF" opacity="0.85"/>
  <path d="M565 122c88 0 158 72 158 160v426c0 88-70 160-158 160h-45c-88 0-158-72-158-160V282c0-88 70-160 158-160h45z" fill="#158CFF"/>
  <path d="M625 190c75 0 136 61 136 136v372c0 75-61 136-136 136H501c-75 0-136-61-136-136V326c0-75 61-136 136-136h124z" fill="#0A60D8" opacity="0.45"/>
  <rect x="235" y="252" width="554" height="430" rx="88" fill="#FFFFFF"/>
  <rect x="276" y="292" width="472" height="350" rx="64" fill="#081F4E"/>
  <rect x="768" y="415" width="45" height="96" rx="22" fill="#2C69C8"/>
  <path d="M365 418c58-98 191-129 286-64" fill="none" stroke="url(#arrow)" stroke-width="48" stroke-linecap="round"/>
  <path d="M642 352l-22 96 91-38z" fill="#29C7FF"/>
  <path d="M662 540c-70 88-209 91-282 6" fill="none" stroke="url(#arrow)" stroke-width="48" stroke-linecap="round"/>
  <path d="M387 548l96-21-39 90z" fill="#2588FF"/>
</svg>
