<svg xmlns="http://www.w3.org/2000/svg" width="1024" height="1024" viewBox="0 0 1024 1024" role="img" aria-label="GestureSync simple phone watch icon candidate">
  <defs>
    <linearGradient id="bg" x1="0" y1="0" x2="1" y2="1">
      <stop offset="0" stop-color="#25C8FF"/>
      <stop offset="0.55" stop-color="#0A8DFF"/>
      <stop offset="1" stop-color="#0066F5"/>
    </linearGradient>
    <linearGradient id="screen" x1="0" y1="0" x2="1" y2="1">
      <stop offset="0" stop-color="#BFF4FF"/>
      <stop offset="1" stop-color="#41B7FF"/>
    </linearGradient>
  </defs>
  <rect x="0" y="0" width="1024" height="1024" rx="180" fill="url(#bg)"/>
  <rect x="170" y="170" width="360" height="690" rx="54" fill="#063A9A"/>
  <rect x="205" y="205" width="290" height="620" rx="42" fill="url(#screen)"/>
  <path d="M293 205h114c0 28-15 44-42 44h-30c-27 0-42-16-42-44z" fill="#063A9A"/>
  <rect x="320" y="214" width="70" height="12" rx="6" fill="#012B76"/>
  <rect x="652" y="345" width="165" height="330" rx="52" fill="#0642B8"/>
  <rect x="615" y="412" width="235" height="215" rx="46" fill="#052F86"/>
  <rect x="640" y="438" width="185" height="163" rx="34" fill="#36B9FF"/>
  <rect x="850" y="486" width="20" height="72" rx="10" fill="#063A9A"/>
  <path d="M540 292c70-40 148-22 193 36" fill="none" stroke="#FFFFFF" stroke-width="34" stroke-linecap="round"/>
  <path d="M722 328l-10 74 67-32z" fill="#FFFFFF"/>
  <path d="M700 750c-75 31-150 4-190-58" fill="none" stroke="#FFFFFF" stroke-width="34" stroke-linecap="round"/>
  <path d="M513 692l14 73-68-27z" fill="#FFFFFF"/>
  <path d="M285 520c24-74 105-111 178-82" fill="none" stroke="#FFFFFF" stroke-width="34" stroke-linecap="round"/>
  <path d="M452 435l-12 76 70-31z" fill="#FFFFFF"/>
  <path d="M455 584c-46 54-134 56-183 2" fill="none" stroke="#FFFFFF" stroke-width="34" stroke-linecap="round"/>
  <path d="M278 585l73-18-23 71z" fill="#FFFFFF"/>
  <path d="M685 504c22-42 78-51 112-18" fill="none" stroke="#FFFFFF" stroke-width="18" stroke-linecap="round"/>
  <path d="M793 485l-10 43 40-18z" fill="#FFFFFF"/>
  <path d="M798 548c-31 35-88 33-116-3" fill="none" stroke="#FFFFFF" stroke-width="18" stroke-linecap="round"/>
  <path d="M688 546l42-10-13 41z" fill="#FFFFFF"/>
</svg>
